<?xml version="1.0" encoding="UTF-8"?>
<svg width="800" height="400" viewBox="0 0 800 400" fill="none" xmlns="http://www.w3.org/2000/svg">
    <rect width="800" height="400" fill="#F3F4F6"/>
    <circle cx="400" cy="200" r="150" fill="#2563EB" fill-opacity="0.1"/>
    <path d="M400 100C344.771 100 300 144.771 300 200C300 255.229 344.771 300 400 300C455.229 300 500 255.229 500 200C500 144.771 455.229 100 400 100ZM400 280C355.817 280 320 244.183 320 200C320 155.817 355.817 120 400 120C444.183 120 480 155.817 480 200C480 244.183 444.183 280 400 280Z" fill="#2563EB"/>
    <path d="M400 140C366.863 140 340 166.863 340 200C340 233.137 366.863 260 400 260C433.137 260 460 233.137 460 200C460 166.863 433.137 140 400 140ZM400 240C377.909 240 360 222.091 360 200C360 177.909 377.909 160 400 160C422.091 160 440 177.909 440 200C440 222.091 422.091 240 400 240Z" fill="#2563EB"/>
    <circle cx="400" cy="200" r="20" fill="#2563EB"/>
</svg> 